# xmcd CD database file
#
# Track frame offsets:
#	150
#	29160
#	54660
#	76545
#	99405
#	128652
#	148522
#	169352
#	192537
#	216830
#	237960
#	257580
#	283747
#	303135
#	318182
#
# Disc length: 4521 seconds
#
# Revision: 1
# Processed by: cddbd v1.5.2PL0 Copyright (c) Steve Scherf et al.
# Submitted via: CDex 1.51
#
DISCID=d211a70f
DTITLE=Richard Marx - Flesh And Bone
DYEAR=1997
DGENRE=Rock
TTITLE0=Fool's Game
TTITLE1=You Never Take Me Dancing
TTITLE2=Touch Of Heaven
TTITLE3=What's The Story
TTITLE4=Can't Lie To My Heart
TTITLE5=Until I Find You Again
TTITLE6=Every Day Of Your Life (Duet with ASKA)
TTITLE7=My Confession
TTITLE8=Eternity
TTITLE9=What's Wrong With That
TTITLE10=The Image
TTITLE11=Breathless
TTITLE12=Miracle
TTITLE13=Too Shy To Say
TTITLE14=Every Day Of Your Life (Richard Solo)
EXTD=YEAR: 1997
EXTT0=
EXTT1=
EXTT2=
EXTT3=
EXTT4=
EXTT5=
EXTT6=
EXTT7=
EXTT8=
EXTT9=
EXTT10=
EXTT11=
EXTT12=
EXTT13=
EXTT14=
PLAYORDER=
